<svg width="176" height="52" fill="none" xmlns="http://www.w3.org/2000/svg">
  <path d="M8 23l2-1 5-6 1-1 1 7h-2l-1-3-1 4h5l4 2 2-2 3 4 2-6 2 2 1-2 2-1 4-3v-1h3l1 2-2 4 5-3v-1h2l2 2 2-3v-1l3-3 2-2h2l3-8 4-3 1 2-2 2 1 2h1l2 7v5l2 4 2 5-5-3-2-8h-1v5l-3 6-1 8h2l1-1 2 3 2 7v5h-2l-1-7-2 2-3-1-2-2-3 1v5l-2 1-4 2h-4l-2-1h-2l1 1-2 1h-2l-3 1-5-2-2-5-1 1-2-2v-1l-6-1-1 4-3-2-2-3H8v5H6l-2 5v-1l-4-9 4-2v-4l-1-5 2-2-1-2 3-3h1zm57 11l3 6 2-1-2-2-3-4v1zM24 22v-2l3-2 3-2h-3l-3 2-1 1v3h1zM90 41h5v-5h2c4 0 7-3 7-6 0-4-3-6-7-6h-7v17zm5-9v-5h1c2 0 3 1 3 3 0 1-1 2-3 2h-1zM112 41c4 0 6-2 6-7 0-4-2-6-6-6-5 0-7 2-7 6 0 5 2 7 7 7zm0-3c-2 0-2-1-2-4 0-2 0-3 2-3 1 0 2 1 2 3 0 3-1 4-2 4zM127 41c3 0 6-2 6-5h-5l-1 2c-2 0-2-1-2-4 0-2 0-3 2-3l1 2h5c0-3-3-5-6-5-5 0-7 2-7 6 0 5 2 7 7 7zM141 41c4 0 6-2 6-5h-4l-2 2c-1 0-2-1-2-4 0-2 1-3 2-3l2 2h4c0-3-2-5-6-5s-7 2-7 6c0 5 3 7 7 7zM154 35v-7h-5v13h5l3-7v7h5V28h-5l-3 7zM172 41h4V28h-6c-4 0-6 2-6 4l2 4-2 5h4l2-4h2v4zm0-7h-2l-2-1 2-2h2v3z" fill="#fff"/>
</svg>
